/* XPM */
static char *_b1f5e188e2145a8ac11b4c582570d21[] = {
/* columns rows colors chars-per-pixel */
"32 32 3 1 ",
"  c #3D253B",
". c #362030",
"X c white",
/* pixels */
"               .                ",
"               .                ",
"               .                ",
"               .                ",
"                                ",
"               ............. .  ",
"                               .",
"                               .",
"       .                       .",
"       .                       .",
"       .                       .",
"........... .             ......",
"                                ",
"                                ",
"                                ",
"       .                        ",
"       .                        ",
"       .                        ",
"       .........                ",
"       .       .                ",
"       .       .                ",
"       .                        ",
"                                ",
"                                ",
"                                ",
"                                ",
"                                ",
"                                ",
"          ................. .   ",
"               .       .        ",
"               .       .        ",
"               .       .        "
};
