/* XPM */
static char *_864a411ef6943c29ffa5e82509d83a2[] = {
/* columns rows colors chars-per-pixel */
"32 32 171 2 ",
"   c #3D253B",
".  c #25131A",
"X  c #200F19",
"o  c #221019",
"O  c #231119",
"+  c #190917",
"@  c #1B0B17",
"#  c #1C0B17",
"$  c #1C0B17",
"%  c #200F19",
"&  c #200F19",
"*  c #200F19",
"=  c #200F19",
"-  c #200F19",
";  c #050012",
":  c #150616",
">  c #35201D",
",  c #452D21",
"<  c #452E23",
"1  c #35201E",
"2  c #150516",
"3  c #050011",
"4  c #1B0B17",
"5  c #432C21",
"6  c None",
"7  c #7F5D32",
"8  c #432C22",
"9  c #301C1B",
"0  c #412A1F",
"q  c #412A20",
"w  c #301C1C",
"e  c #7D5A2D",
"r  c #7D5B2F",
"t  c #412A21",
"y  c #432B21",
"u  c #452D22",
"i  c #7D5B31",
"p  c #301C1D",
"a  c #493022",
"s  c #493023",
"d  c #9A7237",
"f  c #997237",
"g  c #977136",
"h  c #9A7339",
"j  c #694D32",
"k  c #B08D55",
"l  c #D6B068",
"z  c #D4AE68",
"x  c #D6AE62",
"c  c #D6AB55",
"v  c #B08842",
"b  c #694B2C",
"n  c #AF8C53",
"m  c #DDC38F",
"M  c #F5DFAF",
"N  c #F5DFB0",
"B  c #F4DFB0",
"V  c #F4DFB1",
"C  c #F5DA9D",
"Z  c #F5CF75",
"A  c #DDB255",
"S  c #AF8640",
"D  c #E2C182",
"F  c #F9E6B9",
"G  c #FEF0CB",
"H  c #F5E2B7",
"J  c #F0DBAD",
"K  c #F0DBAF",
"L  c #F5DB9E",
"P  c #FED97B",
"I  c #F9CF69",
"U  c #E2BA69",
"Y  c #AF8D56",
"T  c #694E34",
"R  c #FFF2CC",
"E  c #F6E3B8",
"W  c #DBBB7F",
"Q  c #CDA762",
"!  c #CDA764",
"~  c #DBB566",
"^  c #F6CC68",
"/  c #FFDB7D",
"(  c #F9DFA1",
")  c #DDC493",
"_  c #B08E57",
"`  c #F5E0B1",
"'  c #FEF0CC",
"]  c #E7CE99",
"[  c #D6B475",
"{  c #CCA45B",
"}  c #CCA14E",
"|  c #D6A94D",
" . c #E7BB58",
".. c #F6D177",
"X. c #FEE6A5",
"o. c #D6AF63",
"O. c #D6B069",
"+. c #F5E0B2",
"@. c #F5E3B9",
"#. c #DBBC7F",
"$. c #D6B474",
"%. c #E7CD9B",
"&. c #F0D69B",
"*. c #F0CA72",
"=. c #E7BA57",
"-. c #D6A94F",
";. c #DBB15A",
":. c #F5D077",
">. c #F5CF76",
",. c #D6AA55",
"<. c #997238",
"1. c #977137",
"2. c #D4AC61",
"3. c #F4D99B",
"4. c #F0D598",
"5. c #CDA55B",
"6. c #CCA55C",
"7. c #FFEBA9",
"8. c #FFE080",
"9. c #F0C55E",
"0. c #CCA04A",
"q. c #CDA04B",
"w. c #F0C45E",
"e. c #F4C860",
"r. c #D4A74E",
"t. c #977139",
"y. c #977138",
"u. c #D4A954",
"i. c #F4CD72",
"p. c #F0CA70",
"a. c #CDA14F",
"s. c #CCA150",
"d. c #F0CB73",
"f. c #FFDC72",
"g. c #F0C560",
"h. c #CCA04B",
"j. c #F0C55F",
"k. c #F5CF74",
"l. c #F5D075",
"z. c #D6A950",
"x. c #E7BB5B",
"c. c #D6AA51",
"v. c #DBAF54",
"b. c #F5CB63",
"n. c #F5C962",
"m. c #D6A84F",
"M. c #997239",
"N. c #D6AE63",
"B. c #FEE5A4",
"V. c #E7BB59",
"C. c #D6A94E",
"Z. c #E7BC5B",
"A. c #F6CB63",
"S. c #FED469",
"D. c #FFDC7D",
"F. c #F6CB62",
"G. c #DBAF53",
"H. c #FFD669",
"J. c #F9CE64",
"K. c #DDB357",
"L. c #B08843",
"P. c #E2BB6A",
"I. c #F9D06B",
"U. c #FED468",
"Y. c #E2B556",
"T. c #AF8743",
"R. c #694C2D",
"E. c #AF8741",
"W. c #F4C962",
"Q. c #694C2C",
"!. c white",
/* pixels */
"                                                                ",
"                                                                ",
"                                                                ",
"                  . . . . . . . . . . . . . .                   ",
"                  . . . . . . . . . . . . . .                   ",
"              . . X o + @ # # $ $ # # @ + o X . .               ",
"              . . o O % & * = - - = * & % O o . .               ",
"          . . X o ; : > , a a a a a s < 1 2 3 o X . .           ",
"          . . o O : 4 5 6 d f g g f h 7 8 4 2 O o . .           ",
"      . . X o ; : 9 0 j k l l z z x c v b q w : ; o X . .       ",
"      . . o O : 4 0 e n m M N B V C Z A S r t 4 : O o . .       ",
"      . . + % > 5 j n D F G H J K L P I U Y T y > % + . .       ",
"      . . @ & , 6 k m F R E W Q ! ~ ^ / ( ) _ 6 , & @ . .       ",
"      . . # * a d l ` ' E ] [ { } |  ...X.L o.d a * # . .       ",
"      . . # = a f O.+.@.#.$.%.&.*.=.-.;.:.>.,.<.s = # . .       ",
"      . . $ - a 1.2.3.4.5.6.&.7.8.9.0.q.w.e.r.t.s - $ . .       ",
"      . . $ - s y.u.i.p.a.s.d.8.f.g.h.q.j.e.r.t.s - $ . .       ",
"      . . # = s <.,.k.l.;.z. .9.g.x.c.v.b.n.m.M.s = # . .       ",
"      . . # * a d N.C B...V.C.0.h.c.Z.A.S.n.-.h s * # . .       ",
"      . . @ & , 6 _ ) ( D.F.G.q.q.v.A.H.J.K.L.7 u & @ . .       ",
"      . . + % > y T Y P.I.U.b.g.g.b.S.J.Y.T.R.8 1 % + . .       ",
"      . . o O : 4 t r E.K.n.n.W.W.n.n.K.T.i t 4 2 O o . .       ",
"      . . X o ; : w q Q.L.-.m.r.r.m.-.L.R.t p 2 3 o X . .       ",
"          . . o O 2 4 8 7 h M.t.t.M.h 7 8 4 2 O o . .           ",
"          . . X o 3 2 1 u s s s s s s u 1 2 3 o X . .           ",
"              . . o O % & * = - - = * & % O o . .               ",
"              . . X o + @ # # $ $ # # @ + o X . .               ",
"                  . . . . . . . . . . . . . .                   ",
"                  . . . . . . . . . . . . . .                   ",
"                                                                ",
"                                                                ",
"                                                                "
};
