/* XPM */
static char *d870ace789564562bdcd10217208c614_3[] = {
/* columns rows colors chars-per-pixel */
"32 32 128 2 ",
"   c #2B161C",
".  c #351D1F",
"X  c #2D1B22",
"o  c #341E22",
"O  c #321D2E",
"+  c #341F31",
"@  c #362124",
"#  c #3C2324",
"$  c #37272D",
"%  c #3D252A",
"&  c #372032",
"*  c #382133",
"=  c #3A2B33",
"-  c #3D253B",
";  c #3E3139",
":  c #452725",
">  c #472925",
",  c #492A27",
"<  c #432B2C",
"1  c #4B2C29",
"2  c #532F29",
"3  c #56342D",
"4  c #5F3A2E",
"5  c #452E33",
"6  c #4C3334",
"7  c #403239",
"8  c #4D3639",
"9  c #523531",
"0  c #593A33",
"q  c #543B3C",
"w  c #5B3E3D",
"e  c #603830",
"r  c #5F413F",
"t  c #664035",
"y  c #6B4335",
"u  c #65433B",
"i  c #6B463A",
"p  c #734736",
"a  c #734836",
"s  c #704739",
"d  c #71493A",
"f  c #784E3D",
"g  c #443942",
"h  c #483B43",
"j  c #5E4241",
"k  c #50434A",
"l  c #534B54",
"z  c #594D54",
"x  c #5F5256",
"c  c #55515A",
"v  c #58535D",
"b  c #654642",
"n  c #684740",
"m  c #674843",
"M  c #6E4B42",
"N  c #614B4A",
"B  c #734E43",
"V  c #7D5343",
"C  c #7A594F",
"Z  c #69575C",
"A  c #645A63",
"S  c #605D68",
"D  c #63616C",
"F  c #68616B",
"G  c #7D6866",
"H  c #75676B",
"J  c #75686F",
"K  c #696570",
"L  c #716B75",
"P  c #7E6E70",
"I  c #6E717D",
"U  c #854C38",
"Y  c #83533D",
"T  c #845542",
"R  c #8B5742",
"E  c #8B5B45",
"W  c #925A43",
"Q  c #9C5B41",
"!  c #9B6248",
"~  c #A46145",
"^  c #AC6547",
"/  c #A9674A",
"(  c #AE684A",
")  c #B16849",
"_  c #BC6E4C",
"`  c #886C65",
"'  c #82706E",
"]  c #8A7771",
"[  c #8D7975",
"{  c #C1714D",
"}  c #99837B",
"|  c #757883",
" . c #7A7884",
".. c #7C818D",
"X. c #7F8490",
"o. c #8E8184",
"O. c #87818A",
"+. c #8B838A",
"@. c #9A8F8F",
"#. c #858491",
"$. c #828894",
"%. c #898A96",
"&. c #848D99",
"*. c #8C8E9B",
"=. c #8C919E",
"-. c #909196",
";. c #8B94A1",
":. c #8D98A5",
">. c #8F9BA8",
",. c #9193A0",
"<. c #9396A3",
"1. c #979DAA",
"2. c #95A2AF",
"3. c #95A3AF",
"4. c #99A1AF",
"5. c #9BA6B4",
"6. c #9EA7B5",
"7. c #A0B0BD",
"8. c #A1B0BD",
"9. c #A0B1BE",
"0. c #A2B1BF",
"q. c #A1B1BE",
"w. c #A5B3C0",
"e. c #A9BBC9",
"r. c #AABBC9",
"t. c #ABBDCB",
"y. c #A9BBC9",
"u. c #AFC2D0",
/* pixels */
"- - - - - - - - - - - - - - - - - - - - - - - - - - - - - - - - ",
"- - - - - - - - - - - - - - - - - - - - - - - - - - - - - - - - ",
"- - - - - - - - - - - - - - - - - - - - - - - - - - - - - - - - ",
"- - - - - - - - - - - - - - - - - - - - - - - - - - - - - - - - ",
"- - - - - - - - - - - - - - - - - - - - - - - - - - - - - - - - ",
"- - - - - - - - - - - - - - - - - - - - - - - - - - - - - - - - ",
"- - - - - - - - - - - - - - - - - - - - - - - - - - - - - - - - ",
"- - - - - - - - - - - - - - - - - - - - - - - - - - - - - - - - ",
"- - - - - - - - - - - - - - - - - - - - - - - - - - - - - - - - ",
"- - - - - - - - - - - - - - - - - - - - - - - - - - - - - - - - ",
"- - - - - - - - - - - - - - - - - - - - - - - - - - - - - - - - ",
"- - - - - - - - - - - - - - - - - - - - - - - - - - - - - - - - ",
"- - - - - - - - - - - - - - - - - - - - - - - - - - - - - - - - ",
"- - - - - - - - - - - - - - - - - - - - - - - - - - - - - - - - ",
"- - - - - - - - - - - - - - - - - - - - - - - - - - - - - - - - ",
"- - - - - - - - & O O O O O + - - + O O O O O & - - - - - - - - ",
"- - - - + + + + % 1 2 1 , ,   O O   , 1 1 2 1 % + + + + - - - - ",
"- - & & : # : , s / { / ! Q o g g o Q ! / { / s , : # : & & - - ",
"* & @ 1 ^ W ( _ W R ~ W T U 7 9.9.7 U T W ~ R W _ ( W ^ 1 @ & * ",
"o 1 R ) ^ T ~ ^ e o # @ o . = 3.3.= . o @ # o e ^ ~ T ^ ) R 1 o ",
"^ ~ E ~ , o # # 5 u V i w y X = ; X t w i V u 5 # # o , ~ E ~ ^ ",
"_ Q # , i q i f r M E B b d $  .;.= d b B E B u f i q i , # Q _ ",
", 1 8 d T j V E b M E B b d = *.9.7 i b B E M b E V j T d 8 1 , ",
"&.$.L 9 V j V E b M E B b d = *.9.; # @ # : 6 b E V j V 9 L $.&.",
"w.u.5.F 6 q V E b M E B b d = %.1.L F | ....v 9 E V q 6 F 5.u.w.",
"v D D z 0 q V E b M E B b d = %.=.6.K S D >.I > E V w 0 z D D v ",
": : # 3 T j V E b M E B b d = %.4.| w   ; &.>.x y V j T 3 # 1 2 ",
"] ' Z i T j V E b M E B b d = *.9.; d N H @.-.I z w j T u Z [ } ",
"r.t.=.k u w B T b n T M b y = *.9.7 y o.` Y 3 c X.X q u k =.t.r.",
"..:.=.L < 8 i p r u a u r 4 $ *.9.; 4 P G C j l A % 8 < L =.:...",
"@ @ @ # t w i p w u a u w 0 h =.9.l 0 w J +.O.A , t w t # @ @ @ ",
"y t q y y w i p w u a u 5 7 #.<.r.9.h 5 i f m j y i w y y q t y "
};
