/* XPM */
static char *_65b8df69cef402fbbea00ee798746b2[] = {
/* columns rows colors chars-per-pixel */
"32 32 61 1 ",
"  c #231218",
". c #241219",
"X c #27141C",
"o c #2A171F",
"O c #2A1620",
"+ c #2C1922",
"@ c #2F1B22",
"# c #2F1C23",
"$ c #2F1B28",
"% c #311C29",
"& c #341E29",
"* c #35212C",
"= c #38222F",
"- c #362032",
"; c #372134",
": c #3B2633",
"> c #3A2335",
", c #3B2535",
"< c #3D2536",
"1 c #3D2833",
"2 c #3E2834",
"3 c #3D253B",
"4 c #3E263C",
"5 c #3F273C",
"6 c #422A37",
"7 c #422C35",
"8 c #442E36",
"9 c #482E36",
"0 c #40273E",
"q c #432B38",
"w c #462F38",
"e c #42293C",
"r c #432C3C",
"t c #462F3D",
"y c #4A2F38",
"u c #482F3F",
"i c #47303E",
"p c #4B303D",
"a c #4E323F",
"s c #4C353F",
"d c #472C45",
"f c #482F40",
"g c #482D46",
"h c #4B2E49",
"j c #4C2F49",
"k c #4E3440",
"l c #4E304C",
"z c #533740",
"x c #543740",
"c c #503840",
"v c #503841",
"b c #553840",
"n c #5D3E44",
"m c #523449",
"M c #56374B",
"N c #563553",
"B c #593757",
"V c #5C3A50",
"C c #5E3C53",
"Z c #5A3857",
"A c #6C484D",
/* pixels */
"ZNllNBBBBBBBBBBBBNlhhxhhhhhhhhjj",
"NNMMVCCVVVVVxVVCCVMMMxMMMMMMMm0j",
"leeeeeeeeeeeeeeeeeeeeeeeeeeeee0h",
"heeeeeeeeeeeeeeeeeeeeeeeeeeeee0h",
"heeeeeeeeeeeeeeeeeeeeeeeeeeeee0h",
"heAxxxxxxxxzxxeeexxxxxxxxxxxzz0h",
"heAxxxxxxxxxxxeeexxxxxxxxxxxxzhh",
"dexxxxxxxxxxxxeeexxxxxxxxxxxxxhh",
"0exxnxxxxxxxxxeeeexxxxxxxxxxxxhh",
"3exxxzzzzzzzzeeeeezzzxzxxxxxx00h",
"3exxxzzzzzzzzeeeeezzzzzzzxxxx0gh",
"3exzxxxxxxxxxxeeexxxzzxxxxxxzzgg",
"5exkzbbxxxxxxx55exxxxxxxxbbzkfe0",
"->xxxxaaaaaaaa55eaaaaaaaaaaate53",
"O$>eeeeeeeeeeeeeeeeeeeeeeeeee533",
"O$>eeeeeeeeee5335eeeeeeeeeeee553",
"->ezzzzaaaaate55ezzzzzzzzzzzze55",
"5euzzbbzzzzzzueeuzzbbxxxxbbzzz<-",
"5eazxxxxxxxxzaeeazxxxxxxxxxzzy%O",
"-<pzxxxbbbbxzp<<pzzbbbbbbxxxzy&O",
"O%qkzbbbbbbzzz%%zzzbbbbbbbbzkt<-",
"O%<fzay999986zoo=68999999yaaue,-",
"->3e@@@@@@@@@O..O@@@@@@@@@@@e>$O",
">>35@@@@@@@@@@##@@@@@@@@@%@@5>$O",
"O%,rppw888888888888888888wppr3>-",
" @1pkvvvvvvvvvvvvvvvvvvvvvvspq,;",
" @7kkvvvvvvvvvvvvvvvvvvvvvvkkw%O",
".@7kksssssssssssssssssssssskk7@ ",
".@2iittttttttttttttttttttttii2@.",
".O*::::::::::::::::::::::::::*O.",
".XO@@@@@@@@@@@@@@@@@@@@@@@@@@OX.",
"................................"
};
