/* XPM */
static char *_4d16e5dd53f4276a9ad90fb3a557450[] = {
/* columns rows colors chars-per-pixel */
"32 32 113 2 ",
"   c #020101",
".  c #060302",
"X  c #080303",
"o  c #090403",
"O  c #0B0504",
"+  c #0C0504",
"@  c #110706",
"#  c #1C0D09",
"$  c #210F0C",
"%  c #240F0D",
"&  c #26110D",
"*  c #29120E",
"=  c #2D120F",
"-  c #2E1310",
";  c #331511",
":  c #3A1713",
">  c #3B1814",
",  c #3E1A15",
"<  c #431B16",
"1  c #441A15",
"2  c #481C17",
"3  c #481D18",
"4  c #4C1D19",
"5  c #521E1B",
"6  c #571F1B",
"7  c #4F201A",
"8  c #50201A",
"9  c #54211B",
"0  c #57201C",
"q  c #50261E",
"w  c #58201C",
"e  c #5B241D",
"r  c #5D251E",
"t  c #63261F",
"y  c #552920",
"u  c #632620",
"i  c #672721",
"p  c #6A2522",
"a  c #602B22",
"s  c #672821",
"d  c #652D23",
"f  c #682821",
"g  c #6D2A22",
"h  c #712B24",
"j  c #772D26",
"k  c #7C2F27",
"l  c #653026",
"z  c #703227",
"x  c #78352A",
"c  c #7C372C",
"v  c #773A2D",
"b  c #7C3C2F",
"n  c #7F3E30",
"m  c #822D28",
"M  c #83322A",
"N  c #80392D",
"B  c #92372E",
"V  c #823F31",
"C  c #853C31",
"Z  c #8A3D31",
"A  c #903F33",
"S  c #993A30",
"D  c #A63F35",
"F  c #844032",
"G  c #8A4334",
"H  c #8F4335",
"J  c #8C4435",
"K  c #924134",
"L  c #944234",
"P  c #934737",
"I  c #984336",
"U  c #994537",
"Y  c #9E4C3C",
"T  c #A94035",
"R  c #AB4639",
"E  c #A14E3D",
"W  c #A54F3E",
"Q  c #AC4C3D",
"!  c #B64539",
"~  c #A7513F",
"^  c #C0493D",
"/  c #AA5341",
"(  c #AF5542",
")  c #B65140",
"_  c #B15643",
"`  c #B45543",
"'  c #B35744",
"]  c #B45744",
"[  c #BC5342",
"{  c #BA5543",
"}  c #B65845",
"|  c #BB5B47",
" . c #C45041",
".. c #C15644",
"X. c #C65846",
"o. c #C85947",
"O. c #C25E49",
"+. c #C45F4A",
"@. c #CB5C49",
"#. c #D85F4C",
"$. c #C7614B",
"%. c #CA624C",
"&. c #CC634D",
"*. c #CE644E",
"=. c #D0654F",
"-. c #DB624E",
";. c #DD624E",
":. c #D26650",
">. c #D46750",
",. c #E06651",
"<. c #E56F57",
"1. c #E67057",
"2. c #EB7259",
/* pixels */
"# + + + O O + M 4                 . . . X o O 3 M @ + + O O O + ",
"+ ;.;.,.2.2.F f * [ -.-.2.2.2.2.2.2.2.2.2.2.*.* f c ;.;.<.2.2.O ",
"$ ;.;.,.2.2.F i * ..;.;.2.2.2.2.2.2.2.2.2.2.*.* s c ;.;.<.2.2.O ",
"#.;.;.,.2.2.F i * ..;.;.2.2.2.2.2.2.2.2.2.2.*.* s c ;.;.<.2.2.O ",
"A ;.;.,.2.2.F i * ..;.;.2.2.2.2.2.2.2.2.2.2.*.* s c ;.;.<.2.2.O ",
"+ ;.;.,.2.2.F i * ..;.;.2.2.2.2.2.2.2.2.2.2.*.* s c ;.;.<.2.2.O ",
"@ Z Z Z P P q h ; x Z Z P P P P P P P P P P n ; h 7 Z Z H P P + ",
"m 0 6 w w w s ^ D r e e e w w w w w w w w w r D ^ f e e e w r j ",
"5 $ $ $ $ $ $ $ $ $ $ $ $ $ * S S * $ $ $ $ $ $ $ $ $ $ $ $ $ 1 ",
"+ ) ) { $.$.%.%.&.*.*.=.:.>.P 8 8 Z X.X.&.*.*.&.%.%.$.$.O.O.O.o ",
"+ ;.;.,.2.2.2.2.2.2.2.2.2.2.E 4 7 I ;.;.2.2.2.2.2.2.2.2.2.2.2.O ",
"+ ;.;.,.2.2.2.2.2.2.2.2.2.2.E 4 7 I ;.;.2.2.2.2.2.2.2.2.2.2.2.O ",
"+ ;.;.,.2.2.2.2.2.2.2.2.2.2.E 4 7 I ;.;.2.2.2.2.2.2.2.2.2.2.2.O ",
"+ ;.;.,.2.2.2.2.2.2.2.2.2.2.E 4 7 I ;.;.2.2.2.2.2.2.2.2.2.2.2.O ",
"+ K L U E ~ ~ / / ( ( _ ] } b 9 0 d K L Y E ~ / / ( ( _ ' } } O ",
"p : : : > > > > > > > > > > < T T 1 , , , > > > > > > > > > , w ",
"p : : : > > 2 ! B , , , , > > > > > ,  .R > , B ! 3 , , , > , w ",
"+ Q Q Q } } l g - N L U W / / ( _ ] | 2.<.} Y = g a Q Q ` } } O ",
"+ ;.;.,.2.2.F i * ..;.;.2.2.2.2.2.2.2.2.2.2.*.* s c ;.;.<.2.2.O ",
"+ ;.;.,.2.2.F i * ..;.;.2.2.2.2.2.2.2.2.2.2.*.* s c ;.;.<.2.2.O ",
"+ ;.;.,.2.2.F i * ..;.;.2.2.2.2.2.2.2.2.2.2.*.* s c ;.;.<.2.2.O ",
"+ ;.;.,.2.2.F i * ..;.;.2.2.2.2.2.2.2.2.2.2.*.* s c ;.;.<.2.2.O ",
"+ o.o.@.>.>.v f * Q X.X.=.*.&.%.%.%.$.+.O.O./ * f z o.o.=.>.>.O ",
"5 $ $ $ $ $ = T k % $ $ $ $ $ $ $ $ $ $ $ $ % k T = $ $ $ $ $ 1 ",
"m 0 6 w w w w w w w w w w w t ! ! u e e e w w w w w w w w w r j ",
"@ Z Z Z J J G G F F F V V n y w w q x x V F F F G G J J J P P + ",
"+ ;.;.,.2.2.2.2.2.2.2.2.2.2.E 4 7 I ;.;.2.2.2.2.2.2.2.2.2.2.2.O ",
"+ ;.;.,.2.2.2.2.2.2.2.2.2.2.E 4 7 I ;.;.2.2.2.2.2.2.2.2.2.2.2.O ",
"+ ;.;.,.2.2.2.2.2.2.2.2.2.2.E 4 7 I ;.;.2.2.2.2.2.2.2.2.2.2.2.O ",
"+ ;.;.,.2.2.2.2.2.2.2.2.2.2.E 4 7 I ;.;.2.2.2.2.2.2.2.2.2.2.2.O ",
"+ ;.;.,.2.2.2.2.2.2.2.2.2.1.Y 7 8 K -.-.<.2.2.2.2.2.2.2.2.2.2.O ",
"# + & -.C O X . .           . f f .               . . . X o O + "
};
